<?xml version="1.0" encoding="UTF-8"?>
<svg width="92.42" height="100" version="1.1" viewBox="0 0 24.452 26.458" xmlns="http://www.w3.org/2000/svg">
  <path d="m11.002 5.3006c-0.29484 0.70114-0.58463-0.19416-0.87731-0.44325-0.30267-0.29224-0.60477-0.9459-0.90778-1.0253-0.47812 0.60181-0.95652 1.2033-1.4344 1.8054-0.4796-0.62331-0.96018-1.2454-1.4402-1.8682-0.50406 0.62146-1.0066 1.2448-1.5119 1.8647-0.35248-0.45877-0.70654-0.91559-1.0598-1.3734 0.01157 5.6382-0.02322 11.279 0.01743 16.916 0.09784 1.0192 0.94634 1.6547 1.7191 1.4884 4.6675-0.01529 9.3375 0.03058 14.004-0.02285 0.81788-0.14197 1.2789-1.2429 1.154-2.2117v-16.17c-0.35283 0.45778-0.7061 0.91502-1.0585 1.3734-0.50528-0.61988-1.0078-1.2433-1.5119-1.8647-0.48049 0.62278-0.96181 1.2446-1.4416 1.8682-0.49595-0.62124-0.98946-1.2456-1.4843-1.8682-0.48922 0.62163-0.97909 1.2425-1.4678 1.8647-0.49386-0.62215-0.98772-1.2443-1.4816-1.8664-0.40565 0.51103-0.8113 1.0221-1.217 1.5331zm-5.5101 2.9134h13.963v4.2798h-14.434v-4.2798zm0 5.5299h6.7082v7.6186h-7.1787v-7.6186zm8.4288 0h5.5342v3.1843h-6.0048v-3.1843zm0 4.4864h5.5342v3.1322c-2.9221 0-3.0827 9e-6 -6.0048 0v-3.1322z" fill="#ffffff" stroke-width=".26458"/>
</svg>
