<?xml version="1.0" encoding="UTF-8"?>
<svg width="71.377" height="100" version="1.1" viewBox="0 0 18.885 26.458" xmlns="http://www.w3.org/2000/svg">
  <path d="m11.912 3.7584c-0.68463 0.41221-0.90491 1.3754-1.64 1.6689-1.3644 0.10092-2.7283 0.23795-4.0926 0.35357-0.6429 1.6544-1.7274 3.0881-2.4223 4.7179 1.217 1.3897 2.1659 2.9855 3.3341 4.4137 1.5626-0.13841 3.1252-0.27681 4.6878-0.41523 0.70899 1.0474 1.418 2.0949 2.1269 3.1423-0.50946 1.2577-1.0189 2.5154-1.5284 3.7731-1.3352 0.11826-2.6703 0.23652-4.0055 0.3548-0.56004-0.3098-1.3878-1.1578-1.7924-1.114 0.32006 0.68771 0.78411 1.3069 1.1848 1.9444 0.34269 0.23029 0.77435-0.0055 1.1647 0.01753 1.3846-0.12265 2.7693-0.2453 4.154-0.36795 0.6768-1.5965 1.5771-3.1054 2.0422-4.7862-0.83628-1.3703-1.6994-2.7239-2.5461-4.0877-0.14764-0.55044 0.13842-1.8173-0.27492-1.9266-0.46291 0.54084-0.61526 1.5355-1.3919 1.7019-1.1428 0.10123-2.2856 0.20244-3.4283 0.30367-0.7546-1.0663-1.5092-2.1326-2.2639-3.199 0.55769-1.266 1.1154-2.5321 1.6731-3.7981 1.3637-0.1208 2.7274-0.24158 4.0911-0.36238 0.76401 1.0229 1.528 2.0457 2.292 3.0685-0.14134 0.44236-0.81119 1.3795-0.56473 1.5214 0.47191-0.52962 1.8604-1.1642 1.106-1.9562-0.68625-1.0516-1.3723-2.1033-2.0586-3.155-0.006806-0.56024 0.66789-1.3891 0.15284-1.8135z" fill="#ffffff"/>
</svg>
