<?xml version="1.0" encoding="UTF-8"?>
<svg width="81.418" height="100" version="1.1" viewBox="0 0 21.542 26.458" xmlns="http://www.w3.org/2000/svg">
  <path d="m10.816 5.1076c3.0381-0.03812 5.7948 2.7267 5.634 5.7862 0.0055 1.9112-1.0756 3.6704-2.5867 4.7822-1.0424 0.54489-0.65824 2.2298-1.6135 2.5318-1.1129-0.1314-2.246 0.12487-3.3534-0.10231-0.16963-1.622-1.459-2.6234-2.5221-3.7056-1.9987-2.2916-1.5951-6.1839 0.84049-8.0158 1.0069-0.82509 2.2962-1.2975 3.6013-1.2764zm-0.27608-1.3321c-3.8054-0.04862-7.139 3.621-6.7505 7.4054 0.08929 2.2067 1.3775 4.2261 3.1418 5.4975 1.1612 1.0885 0.62266 2.777 0.87574 4.1525 0.45721 0.80192 1.6624 0.66199 2.0934 1.6322 0.86738 0.55256 2.1096 0.08417 2.5072-0.83864 1.2561-0.10146 1.6939-1.0529 1.4252-2.181-0.28686-1.5118 0.68024-2.7265 1.7676-3.637 1.6288-1.4446 2.3935-3.6736 2.1329-5.8163-0.23552-3.5228-3.6731-6.4853-7.1933-6.2146zm-1.0185 3.5987c-0.69975 0.34976-0.21049 1.9034-1.509 1.6079-1.4994 0.34237 0.78604 1.3622-0.17611 2.2846-1.0173 0.81654 0.30918 1.1151 1.0061 1.248 0.31048 0.7508 0.37383 2.0799 1.3991 1.0085 0.83684-0.85869 1.8985 1.3231 2.2253-0.14575-0.5419-1.4069 2.7554-0.77506 1.2231-2.2051-0.69769-0.80216 1.3736-2.3755-0.56243-2.185-1.0227-0.20609-0.38148-2.4289-1.674-1.3496-0.744 0.97466-1.2977-0.3706-1.932-0.26352zm1.1918 1.992c1.2996-0.1495 1.8796 1.8215 0.70996 2.4179-1.1496 0.713-2.5397-0.87915-1.6801-1.9232 0.2215-0.30478 0.59092-0.50529 0.97014-0.49475z" fill="#ffffff"/>
</svg>
