<?xml version="1.0" encoding="UTF-8"?>
<svg width="100" height="100" version="1.1" viewBox="0 0 26.458 26.458" xmlns="http://www.w3.org/2000/svg">
  <path d="m18.796 2.6048-1.0454 2.058-2.3104-0.2376 1.6247 1.6564-0.66075 1.5082c0.13984 0.077681 0.27955 0.16016 0.41749 0.24778l1.3747-0.71279 1.7232 1.567-0.35074-2.2775 2.0015-1.1767-2.2855-0.3711zm2.8432 6.2466-0.68451 1.3509-1.4969-0.16519 1.0805 1.0364-0.4899 1.0669c0.01992 0.07251 0.03856 0.14573 0.05658 0.21949l1.1461-0.57476 1.1099 1.0058-0.25457-1.5093 1.3057-0.71958-1.4799-0.23081zm-12.511-1.1654c-0.98578 0.56842-1.8149 1.368-2.4846 2.4031-1.1154 1.7241-1.4593 3.5939-1.033 5.6084 0.4248 2.0072 1.4961 3.5733 3.2144 4.6977 1.7241 1.1154 3.59 1.46 5.5971 1.0352 2.0145-0.42639 3.5795-1.4977 4.6965-3.2144 0.47349-0.7277 0.80756-1.4805 1.0058-2.2583-0.66914 0.38486-1.41 0.66554-2.2266 0.83838-2.0072 0.42479-3.8731 0.08013-5.5971-1.0352-1.7182-1.1243-2.7896-2.6904-3.2144-4.6976-0.24874-1.1753-0.23414-2.3009 0.041861-3.3773z" fill="#ffffff" stroke-width=".26458"/>
</svg>
