<?xml version="1.0" encoding="UTF-8"?>
<svg width="71.377" height="100" version="1.1" viewBox="0 0 18.885 26.458" xmlns="http://www.w3.org/2000/svg">
  <path d="m12.406 3.8992c-0.70541 0.37555-0.97615 1.3258-1.7257 1.5801-1.3678 0.028857-2.7371 0.093801-4.1055 0.13734-0.72922 1.6182-1.8878 2.9927-2.6676 4.5837 1.1421 1.4519 2.0055 3.0955 3.0968 4.5833 1.5677-0.05583 3.1354-0.11166 4.7032-0.16754 0.65279 1.0833 1.3056 2.1667 1.9583 3.25-0.57505 1.2291-1.1501 2.4582-1.7252 3.6873-1.3396 0.04767-2.6791 0.09543-4.0186 0.14316-0.54293-0.33889-1.3248-1.2293-1.7312-1.2069 0.28336 0.70362 0.71413 1.3464 1.0807 2.0042 0.33007 0.24803 0.77356 0.03533 1.1622 0.0789 1.3891-0.04947 2.7784-0.09894 4.1676-0.14847 0.76002-1.5586 1.7386-3.0179 2.2917-4.6719-0.76288-1.4125-1.5534-2.8097-2.3271-4.2162-0.11842-0.55746 0.23402-1.8075-0.17298-1.9384-0.49078 0.51569-0.69535 1.5009-1.4797 1.6262-1.1465 0.04085-2.2931 0.0817-3.4395 0.12255-0.69734-1.1046-1.3947-2.2092-2.0921-3.3139 0.62365-1.2348 1.2473-2.4698 1.871-3.7046 1.3682-0.048744 2.7363-0.097469 4.1045-0.14622 0.70903 1.0618 1.418 2.1234 2.1271 3.1851-0.16446 0.43429-0.88278 1.3348-0.64414 1.4895 0.49917-0.50401 1.9192-1.0645 1.2076-1.8952-0.62986-1.0863-1.2595-2.1727-1.8894-3.2591 0.02273-0.55982 0.74019-1.352 0.24822-1.8029z" fill="#ffffff"/>
</svg>
