<?xml version="1.0" encoding="UTF-8"?>
<svg width="100" height="100" version="1.1" viewBox="0 0 26.458 26.458" xmlns="http://www.w3.org/2000/svg">
  <path d="m19.119 18.216q1.6842-2.5884 1.047-5.5992-0.63955-3.0218-3.228-4.706-2.5797-1.6976-5.6015-1.058-3.0108 0.6372-4.6926 3.2367-1.6731 2.5861-1.0336 5.6079 0.6372 3.0108 3.2146 4.6973 2.5861 1.6731 5.5969 1.0359 3.0218-0.63956 4.6973-3.2146zm-8.1041-13.755c-0.05515-0.011385-0.11602-0.010071-0.18227 0.00394-0.1262 0.026711-0.21102 0.090642-0.25541 0.19232l-0.63709 1.4465c0.37356-0.13213 0.76165-0.24292 1.1666-0.32863 0.41225-0.087249 0.81958-0.1456 1.2211-0.17601l-1.1645-1.0653c-0.04407-0.036826-0.09331-0.061304-0.14846-0.072711zm5.8257 0.61106c-0.08528-0.011823-0.16228 0.00482-0.232 0.049218l-1.3592 0.78529c0.75825 0.22725 1.4937 0.57327 2.2079 1.0335l-0.33413-1.5809c-0.02805-0.13248-0.09298-0.2212-0.19468-0.26561-0.03015-0.010071-0.05942-0.017734-0.08782-0.021675zm-11.003 2.3293c-0.11527-0.015326-0.21603 0.019048-0.30365 0.10352-0.07996 0.089438-0.10702 0.19792-0.08031 0.32411l0.33206 1.5674c0.46772-0.70512 0.99925-1.3159 1.5979-1.8277zm13.782 1.4631c0.51034 0.64311 0.91571 1.3579 1.2162 2.145l0.65813-1.4933c0.04171-0.11431 0.03024-0.21673-0.03538-0.30834-0.06058-0.099225-0.14538-0.15709-0.25435-0.1736zm-15.035 3.1864-1.3629 0.78937c-0.09929 0.06054-0.15602 0.14816-0.17115 0.26345-0.01642 0.10899 0.01773 0.20705 0.10211 0.29464l1.1935 1.087c-0.04315-0.83467 0.03634-1.646 0.23859-2.4344zm16.845 1.7495c0.04528 0.84388-0.03582 1.6649-0.24345 2.4628l1.3799-0.79332c0.09922-0.06056 0.15604-0.15195 0.16986-0.27355 0.01248-0.12788-0.02273-0.23256-0.10588-0.31385zm-16.489 3.5036-0.65173 1.4606c-0.04309 0.10811-0.03323 0.2182 0.03002 0.33002 0.06816 0.1047 0.15681 0.16534 0.26582 0.18131l1.5651 0.16447c-0.50692-0.64128-0.91046-1.3533-1.2092-2.1366zm15.049 1.5909c-0.47203 0.71054-1.0113 1.3249-1.62 1.8389l1.5794 0.16583c0.09999 5e-3 0.1997-0.03558 0.2999-0.12272 0.07365-0.08808 0.09901-0.18884 0.07497-0.30242zm-11.666 2.4833 0.33117 1.5651c0.03166 0.11843 0.09833 0.19946 0.20005 0.24394 0.13325 0.03757 0.24162 0.03586 0.32467-0.0085l1.3659-0.78573c-0.76217-0.22151-1.5024-0.56101-2.2218-1.0149zm7.5348 0.78917c-0.38569 0.13754-0.78804 0.2515-1.2077 0.3403-0.4118 0.08714-0.81856 0.14544-1.22 0.17612l1.1928 1.0825c0.08324 0.08215 0.19057 0.1063 0.32162 0.07131 0.13248-0.02802 0.2201-0.09303 0.26452-0.19486z" fill="#ffffff" stroke-width=".26458"/>
</svg>
