<?xml version="1.0" encoding="UTF-8"?>
<svg width="100" height="100" version="1.1" viewBox="0 0 26.458 26.458" xmlns="http://www.w3.org/2000/svg">
  <path d="m0 0h26.458c-0.41842 13.945-12.127 26.009-26.458 26.458z" fill="#ffff00" stroke-width="0"/>
  <path d="m26.325 1.8794c-1.3791 9.2685-14.293 7.1506-18.868 8.6521 7.0451 3.973 1.0454 15.07-6.6212 15.879 13.303-0.84084 24.159-11.667 25.49-24.531zm-26.314 24.579c-0.0036 5e-6 -0.0072 5.17e-4 -0.01085 5.17e-4 0.01284 0 0.02541-5.01e-4 0.03824-5.17e-4z" fill="#000000"/>
  <path d="m26.116 3.439c-1.7104 7.3747-9.6002 2.7549-15.73 2.6675 7.5991 12.997-1.9433 19.672-9.5574 20.304 12.765-0.80402 23.278-10.801 25.287-22.972zm-26.107 23.019c-0.0032 8.5e-5 -0.0066 4.35e-4 -0.0098 5.17e-4 0.01284 0 0.02541-5.01e-4 0.03824-5.17e-4z" fill="#ff0000"/>
</svg>
